<?xml version="1.0" encoding="iso-8859-1"?>
<!-- Generator: Adobe Illustrator 19.0.0, SVG Export Plug-In . SVG Version: 6.00 Build 0)  -->
<svg version="1.1" id="Capa_1" xmlns="http://www.w3.org/2000/svg" xmlns:xlink="http://www.w3.org/1999/xlink" x="0px" y="0px"
	 viewBox="0 0 512 512" style="enable-background:new 0 0 512 512;" xml:space="preserve">
<g>
	<g>
		<path d="M443.209,442.24l-27.296-299.68c-0.736-8.256-7.648-14.56-15.936-14.56h-48V96c0-25.728-9.984-49.856-28.064-67.936
			C306.121,10.24,281.353,0,255.977,0c-52.928,0-96,43.072-96,96v32h-48c-8.288,0-15.2,6.304-15.936,14.56L68.809,442.208
			c-1.632,17.888,4.384,35.712,16.48,48.96S114.601,512,132.553,512h246.88c17.92,0,35.136-7.584,47.232-20.8
			C438.793,477.952,444.777,460.096,443.209,442.24z M319.977,128h-128V96c0-35.296,28.704-64,64-64
			c16.96,0,33.472,6.784,45.312,18.656C313.353,62.72,319.977,78.816,319.977,96V128z"/>
	</g>
</g>
<g>
</g>
<g>
</g>
<g>
</g>
<g>
</g>
<g>
</g>
<g>
</g>
<g>
</g>
<g>
</g>
<g>
</g>
<g>
</g>
<g>
</g>
<g>
</g>
<g>
</g>
<g>
</g>
<g>
</g>
</svg>
