<svg id="Capa_1" enable-background="new 0 0 512 512" height="512" viewBox="0 0 512 512" width="512" xmlns="http://www.w3.org/2000/svg"><g><path d="m419.337 457.107h.01z"/><g><path d="m256 47.294c-41.962 0-81.272 16.485-110.702 46.433l-.441.451c-2.888 2.956-2.834 7.693.121 10.582 2.955 2.888 7.693 2.834 10.582-.121l.426-.436c26.58-27.048 62.099-41.943 100.014-41.943 77.314 0 140.214 62.899 140.214 140.214s-62.9 140.214-140.214 140.214-140.214-62.9-140.214-140.214c0-25.258 6.788-50.015 19.63-71.595 2.113-3.552.948-8.144-2.604-10.257-3.553-2.113-8.144-.947-10.257 2.604-14.219 23.894-21.735 51.298-21.735 79.249 0 85.566 69.613 155.18 155.179 155.18s155.179-69.614 155.179-155.18-69.612-155.181-155.178-155.181z"/><path d="m445.534 171.332c-4.06-6.045-7.894-11.755-9.335-17.144-1.537-5.751-1.078-12.836-.591-20.337.726-11.189 1.477-22.76-4.239-32.638-5.804-10.032-16.289-15.181-26.429-20.161-6.667-3.274-12.965-6.367-17.058-10.46-4.093-4.094-7.186-10.391-10.461-17.059-4.979-10.139-10.128-20.624-20.161-26.428-9.878-5.715-21.448-4.964-32.638-4.239-7.501.487-14.585.947-20.338-.591-5.389-1.441-11.099-5.275-17.144-9.335-9.029-6.065-19.266-12.94-31.14-12.94s-22.111 6.875-31.143 12.941c-6.045 4.06-11.754 7.894-17.143 9.334-5.751 1.538-12.836 1.078-20.337.591-11.19-.725-22.759-1.476-32.638 4.239-10.032 5.804-15.181 16.289-20.161 26.428-3.274 6.668-6.367 12.966-10.461 17.059-4.093 4.093-10.39 7.186-17.058 10.46-10.14 4.979-20.624 10.129-26.429 20.161-5.716 9.878-4.965 21.449-4.239 32.639.487 7.5.946 14.585-.591 20.336-1.441 5.389-5.275 11.099-9.335 17.144-6.065 9.032-12.94 19.268-12.94 31.142s6.874 22.111 12.94 31.143c4.059 6.045 7.894 11.755 9.334 17.144 1.537 5.751 1.078 12.836.591 20.337-.726 11.189-1.477 22.759 4.239 32.638 5.804 10.032 16.289 15.182 26.429 20.161 6.667 3.274 12.965 6.367 17.058 10.46 3.795 3.795 6.731 9.491 9.748 15.613l-54.351 99.99c-2.332 4.29-2.265 9.375.18 13.601 2.445 4.227 6.818 6.82 11.699 6.938l41.681 1.009 23.515 34.429c2.617 3.832 6.861 6.063 11.461 6.063.24 0 .482-.006.724-.018 4.876-.247 9.179-2.956 11.511-7.246l57.07-104.991c5.744 3.006 11.932 5.204 18.645 5.204 6.712 0 12.901-2.198 18.645-5.204l57.07 104.992c2.332 4.29 6.635 6.999 11.511 7.246.243.012.484.018.724.018 4.6 0 8.844-2.231 11.461-6.063l23.515-34.429 41.68-1.009c4.881-.118 9.255-2.712 11.699-6.938 2.445-4.227 2.512-9.311.18-13.601l-19.875-36.565c-1.974-3.632-6.517-4.977-10.148-3.001-3.631 1.974-4.974 6.517-3.001 10.148l19.045 35.037-40.488.98c-4.462.108-8.628 2.373-11.144 6.058l-22.842 33.443-56.648-104.216c5.955-3.999 11.585-7.751 16.901-9.172 5.751-1.537 12.836-1.078 20.337-.591 11.191.726 22.76 1.477 32.638-4.239 5.229-3.025 9.125-7.327 12.368-12.184l13.369 24.596c1.973 3.631 6.514 4.974 10.148 3.001 3.631-1.974 4.974-6.517 3.001-10.148l-18.013-33.139c3.017-6.122 5.953-11.817 9.748-15.612 4.093-4.093 10.39-7.186 17.058-10.46 10.14-4.979 20.624-10.129 26.429-20.161 5.716-9.878 4.965-21.449 4.239-32.639-.487-7.5-.946-14.585.591-20.337 1.441-5.389 5.275-11.098 9.334-17.143 6.065-9.032 12.94-19.269 12.94-31.143.003-11.874-6.872-22.111-12.937-31.142zm-277.567 324.729-22.841-33.442c-2.517-3.685-6.683-5.95-11.145-6.058l-40.487-.98 48.877-89.92c3.243 4.856 7.139 9.158 12.368 12.183 9.879 5.715 21.451 4.965 32.638 4.239 7.501-.487 14.586-.946 20.337.591 5.317 1.421 10.947 5.174 16.901 9.172zm265.142-270.788c-4.564 6.797-9.284 13.825-11.368 21.623-2.173 8.128-1.611 16.792-1.067 25.17.608 9.374 1.182 18.228-2.259 24.175-3.528 6.097-11.564 10.044-20.072 14.223-7.47 3.668-15.194 7.461-21.043 13.311-5.85 5.849-9.643 13.574-13.312 21.044-4.178 8.508-8.125 16.543-14.221 20.071-5.948 3.441-14.8 2.866-24.175 2.259-8.379-.544-17.042-1.105-25.17 1.067-7.797 2.085-14.825 6.804-21.622 11.369-7.963 5.348-15.484 10.399-22.8 10.399-7.315 0-14.836-5.051-22.799-10.399-6.797-4.564-13.824-9.284-21.623-11.369-4.462-1.193-9.084-1.561-13.733-1.561-3.82 0-7.658.249-11.437.495-9.375.607-18.228 1.183-24.175-2.259-6.097-3.528-10.044-11.564-14.222-20.072-3.668-7.47-7.462-15.194-13.312-21.044-5.849-5.849-13.573-9.643-21.043-13.311-8.508-4.178-16.544-8.125-20.072-14.223-3.441-5.947-2.867-14.801-2.259-24.174.544-8.378 1.106-17.042-1.067-25.17-2.084-7.798-6.804-14.827-11.369-21.623-5.347-7.963-10.398-15.484-10.398-22.799s5.051-14.836 10.398-22.799c4.565-6.797 9.284-13.825 11.369-21.623 2.173-8.128 1.611-16.792 1.067-25.17-.608-9.374-1.182-18.228 2.259-24.175 3.528-6.097 11.564-10.044 20.072-14.223 7.47-3.668 15.194-7.462 21.043-13.311s9.643-13.574 13.312-21.044c4.178-8.507 8.125-16.543 14.222-20.071 5.947-3.44 14.8-2.866 24.175-2.259 8.378.544 17.041 1.106 25.17-1.067 7.797-2.085 14.825-6.804 21.622-11.369 7.963-5.348 15.484-10.399 22.8-10.399 7.315 0 14.836 5.051 22.799 10.398 6.797 4.565 13.825 9.285 21.623 11.369 8.128 2.173 16.793 1.611 25.171 1.067 9.374-.607 18.228-1.182 24.174 2.259 6.097 3.528 10.044 11.564 14.222 20.071 3.668 7.47 7.462 15.194 13.312 21.044 5.849 5.849 13.574 9.643 21.043 13.311 8.508 4.178 16.543 8.125 20.071 14.222 3.441 5.947 2.867 14.801 2.259 24.174-.544 8.378-1.106 17.042 1.067 25.17 2.084 7.798 6.804 14.827 11.369 21.623 5.347 7.963 10.398 15.484 10.398 22.799 0 7.317-5.051 14.838-10.399 22.801z"/><path d="m358.759 195.463c5.056-4.929 6.841-12.162 4.659-18.877s-7.878-11.518-14.865-12.533l-50.748-7.374c-1.124-.163-2.095-.869-2.597-1.887l-22.695-45.985c-3.125-6.332-9.453-10.265-16.513-10.265s-13.388 3.933-16.513 10.265l-22.695 45.985c-.502 1.018-1.473 1.724-2.597 1.887l-50.747 7.374c-6.987 1.015-12.684 5.817-14.866 12.533-2.182 6.715-.397 13.948 4.66 18.877l36.721 35.794c.814.793 1.184 1.934.992 3.053l-8.669 50.543c-1.194 6.96 1.614 13.861 7.326 18.011 3.228 2.345 7.004 3.536 10.806 3.536 2.926 0 5.868-.706 8.587-2.135l45.389-23.863c1.006-.528 2.206-.528 3.21 0l45.39 23.863c6.249 3.285 13.68 2.748 19.393-1.401 5.713-4.15 8.52-11.052 7.326-18.011l-8.669-50.543c-.192-1.119.179-2.26.991-3.052zm-52.464 41.377 8.669 50.543c.327 1.907-.851 2.994-1.372 3.373-.522.379-1.919 1.162-3.632.262l-45.391-23.863c-5.366-2.821-11.772-2.82-17.138 0l-45.39 23.864c-1.711.9-3.11.116-3.632-.263-.521-.379-1.699-1.466-1.372-3.373l8.669-50.542c1.025-5.974-.954-12.067-5.296-16.3l-36.721-35.794c-1.386-1.351-1.072-2.923-.873-3.535.199-.613.869-2.069 2.784-2.347l50.748-7.374c5.999-.872 11.182-4.637 13.865-10.073l22.695-45.985c.856-1.735 2.448-1.922 3.093-1.922s2.236.187 3.093 1.922l22.695 45.985c2.683 5.436 7.866 9.202 13.865 10.073l50.748 7.374c1.915.278 2.584 1.734 2.784 2.347.199.613.513 2.185-.872 3.535l-36.723 35.795c-4.342 4.232-6.321 10.325-5.296 16.298z"/></g></g></svg>